<?xml version="1.0" standalone="no"?>
<!DOCTYPE svg PUBLIC "-//W3C//DTD SVG 20010904//EN"
 "http://www.w3.org/TR/2001/REC-SVG-20010904/DTD/svg10.dtd">
<svg version="1.0" xmlns="http://www.w3.org/2000/svg"
 width="527.000000pt" height="527.000000pt" viewBox="0 0 527.000000 527.000000"
 preserveAspectRatio="xMidYMid meet">
<metadata>
Created by potrace 1.11, written by Peter Selinger 2001-2013
</metadata>
<g transform="translate(0.000000,527.000000) scale(0.100000,-0.100000)"
fill="#000000" stroke="none">
<path d="M2440 5264 c-480 -44 -905 -193 -1285 -452 -155 -105 -242 -178 -380
-317 -407 -406 -658 -903 -746 -1476 -32 -205 -32 -562 -1 -764 90 -576 340
-1073 742 -1476 203 -203 428 -368 670 -492 918 -468 2029 -355 2840 290 116
92 320 297 416 418 692 876 764 2079 178 3025 -143 233 -380 502 -584 664
-374 298 -802 486 -1266 556 -134 20 -472 34 -584 24z m960 -1730 c0 -716 1
-756 18 -749 79 34 162 28 223 -16 28 -20 29 -20 56 0 66 47 163 50 238 8 l40
-23 42 24 c23 13 67 26 97 29 l55 6 3 363 3 363 29 30 c34 35 86 42 135 17 49
-26 51 -40 51 -420 l0 -353 55 -6 c106 -11 197 -90 211 -182 l6 -45 115 0 115
0 -5 -207 c-7 -279 -40 -429 -139 -628 -92 -185 -256 -382 -407 -490 l-70 -50
0 -111 -1 -111 -482 -5 c-266 -3 -1029 -3 -1695 0 l-1213 5 0 1653 0 1654
1260 0 1260 0 0 -756z"/>
<path d="M1110 3725 l0 -345 1035 0 1035 0 0 345 0 345 -1035 0 -1035 0 0
-345z m1830 0 l0 -115 -800 0 -800 0 0 115 0 115 800 0 800 0 0 -115z"/>
</g>
</svg>
